grf
version=1
nRows=17
nColumns=37
inDegrees=no
endheader
time	ground_force_1_vx	ground_force_1_vy	ground_force_1_vz	ground_force_1_px	ground_force_1_py	ground_force_1_pz	ground_moment_1_mx	ground_moment_1_my	ground_moment_1_mz	ground_force_2_vx	ground_force_2_vy	ground_force_2_vz	ground_force_2_px	ground_force_2_py	ground_force_2_pz	ground_moment_2_mx	ground_moment_2_my	ground_moment_2_mz	ground_force_3_vx	ground_force_3_vy	ground_force_3_vz	ground_force_3_px	ground_force_3_py	ground_force_3_pz	ground_moment_3_mx	ground_moment_3_my	ground_moment_3_mz	ground_force_4_vx	ground_force_4_vy	ground_force_4_vz	ground_force_4_px	ground_force_4_py	ground_force_4_pz	ground_moment_4_mx	ground_moment_4_my	ground_moment_4_mz
      3.39000000	      0.00000000	     -0.00000000	      0.00000000	      0.00000000	      0.00000000	      0.00000000	      0.00000000	      0.00000000	      0.00000000	      0.20110910	     60.96519470	   -478.04641724	   -279.28155599	  -1205.59276810	      0.00000000	      0.00000000	      0.00000000	   7770.99518934	      1.39175382	    -63.76825726	   -507.20861816	   -293.75947658	   -599.86879115	      0.00000000	      0.00000000	     -0.00000000	  -9411.05796444	      0.00000000	     -0.00000000	      0.00000000	      0.00000000	      0.00000000	      0.00000000	      0.00000000	      0.00000000	      0.00000000
      3.40000000	      0.00000000	     -0.00000000	      0.00000000	      0.00000000	      0.00000000	      0.00000000	      0.00000000	      0.00000000	      0.00000000	     -0.15283668	     61.12019348	   -477.11233521	   -278.56915827	  -1205.04781893	      0.00000000	      0.00000000	      0.00000000	   7838.12502237	      1.74624076	    -63.85658279	   -507.16421509	   -293.05382957	   -599.76112751	      0.00000000	      0.00000000	     -0.00000000	  -9295.76691803	      0.00000000	     -0.00000000	      0.00000000	      0.00000000	      0.00000000	      0.00000000	      0.00000000	      0.00000000	      0.00000000
      3.41000000	      0.00000000	     -0.00000000	      0.00000000	      0.00000000	      0.00000000	      0.00000000	      0.00000000	      0.00000000	      0.00000000	     -0.29151255	     60.87606812	   -475.89355469	   -279.03749936	  -1205.42401732	      0.00000000	      0.00000000	      0.00000000	   7809.14835264	      2.15737833	    -63.90606327	   -506.07424927	   -293.00880226	   -599.82648997	      0.00000000	      0.00000000	     -0.00000000	  -9400.26206812	      0.00000000	     -0.00000000	      0.00000000	      0.00000000	      0.00000000	      0.00000000	      0.00000000	      0.00000000	      0.00000000
      3.42000000	      0.00000000	     -0.00000000	      0.00000000	      0.00000000	      0.00000000	      0.00000000	      0.00000000	      0.00000000	      0.00000000	     -0.40546241	     61.02179718	   -476.28076172	   -278.33815688	  -1205.78226369	      0.00000000	      0.00000000	      0.00000000	   7779.03971720	      2.25690501	    -63.46432515	   -505.33538818	   -292.14515764	   -599.72313547	      0.00000000	      0.00000000	     -0.00000000	  -9333.32757121	      0.00000000	     -0.00000000	      0.00000000	      0.00000000	      0.00000000	      0.00000000	      0.00000000	      0.00000000	      0.00000000
      3.43000000	      0.00000000	     -0.00000000	      0.00000000	      0.00000000	      0.00000000	      0.00000000	      0.00000000	      0.00000000	      0.00000000	     -0.12990236	     61.26387024	   -476.24765015	   -277.81953664	  -1205.84642947	      0.00000000	      0.00000000	      0.00000000	   7798.04392123	      1.62580422	    -63.70882430	   -505.80648804	   -291.94007437	   -599.46188158	      0.00000000	      0.00000000	     -0.00000000	  -9200.52299668	      0.00000000	     -0.00000000	      0.00000000	      0.00000000	      0.00000000	      0.00000000	      0.00000000	      0.00000000	      0.00000000
      3.44000000	      0.00000000	     -0.00000000	      0.00000000	      0.00000000	      0.00000000	      0.00000000	      0.00000000	      0.00000000	      0.00000000	     -0.25245500	     61.60427475	   -475.51171875	   -278.28620894	  -1205.77564466	      0.00000000	      0.00000000	      0.00000000	   7873.52562132	      1.61676719	    -63.82733931	   -507.12307739	   -291.80740397	   -599.39346825	      0.00000000	      0.00000000	     -0.00000000	  -9285.30644522	      0.00000000	     -0.00000000	      0.00000000	      0.00000000	      0.00000000	      0.00000000	      0.00000000	      0.00000000	      0.00000000
      3.45000000	      0.00000000	     -0.00000000	      0.00000000	      0.00000000	      0.00000000	      0.00000000	      0.00000000	      0.00000000	      0.00000000	     -0.18575062	     61.93098831	   -478.39672852	   -277.99904976	  -1205.85347022	      0.00000000	      0.00000000	      0.00000000	   7784.25030351	      1.50807771	    -64.38650526	   -508.75219727	   -292.30250764	   -599.58284665	      0.00000000	      0.00000000	     -0.00000000	  -9287.12026918	      0.00000000	     -0.00000000	      0.00000000	      0.00000000	      0.00000000	      0.00000000	      0.00000000	      0.00000000	      0.00000000
      3.46000000	      0.00000000	     -0.00000000	      0.00000000	      0.00000000	      0.00000000	      0.00000000	      0.00000000	      0.00000000	      0.00000000	      0.16423927	     62.27529907	   -480.67791748	   -278.79127976	  -1206.10135666	      0.00000000	      0.00000000	      0.00000000	   7937.76962855	      1.62690171	    -64.47483840	   -512.28015137	   -291.95003166	   -599.65695864	      0.00000000	      0.00000000	     -0.00000000	  -9198.78585582	      0.00000000	     -0.00000000	      0.00000000	      0.00000000	      0.00000000	      0.00000000	      0.00000000	      0.00000000	      0.00000000
      3.47000000	      0.00000000	     -0.00000000	      0.00000000	      0.00000000	      0.00000000	      0.00000000	      0.00000000	      0.00000000	      0.00000000	      1.05675328	     62.47352982	   -485.62243652	   -278.92814046	  -1206.18306760	      0.00000000	      0.00000000	      0.00000000	   7925.01150224	      1.57820516	    -64.91644301	   -513.91461182	   -292.33176411	   -599.63018992	      0.00000000	      0.00000000	     -0.00000000	  -9318.81835908	      0.00000000	     -0.00000000	      0.00000000	      0.00000000	      0.00000000	      0.00000000	      0.00000000	      0.00000000	      0.00000000
      3.48000000	      0.00000000	     -0.00000000	      0.00000000	      0.00000000	      0.00000000	      0.00000000	      0.00000000	      0.00000000	      0.00000000	      2.68960977	     63.05644226	   -488.91183472	   -279.75691268	  -1205.33539673	      0.00000000	      0.00000000	      0.00000000	   7929.18715412	      1.24194534	    -64.65147411	   -516.13153076	   -292.11211367	   -599.77430739	      0.00000000	      0.00000000	     -0.00000000	  -9283.36247700	      0.00000000	     -0.00000000	      0.00000000	      0.00000000	      0.00000000	      0.00000000	      0.00000000	      0.00000000	      0.00000000
      3.49000000	      0.00000000	     -0.00000000	      0.00000000	      0.00000000	      0.00000000	      0.00000000	      0.00000000	      0.00000000	      0.00000000	      4.10368347	     63.68048096	   -495.39810181	   -279.42267100	  -1206.42194237	      0.00000000	      0.00000000	      0.00000000	   7940.05142484	      0.75843440	    -64.26716620	   -517.91448975	   -291.94326317	   -599.68613369	      0.00000000	      0.00000000	     -0.00000000	  -9200.49151512	      0.00000000	     -0.00000000	      0.00000000	      0.00000000	      0.00000000	      0.00000000	      0.00000000	      0.00000000	      0.00000000
      3.50000000	      0.00000000	     -0.00000000	      0.00000000	      0.00000000	      0.00000000	      0.00000000	      0.00000000	      0.00000000	      0.00000000	      5.48952103	     65.11283875	   -499.84701538	   -279.63822305	  -1206.53159399	      0.00000000	      0.00000000	      0.00000000	   7895.47874541	      0.35483756	    -63.83101657	   -518.42279053	   -291.48435658	   -600.59474971	      0.00000000	      0.00000000	     -0.00000000	  -9145.57078636	      0.00000000	     -0.00000000	      0.00000000	      0.00000000	      0.00000000	      0.00000000	      0.00000000	      0.00000000	      0.00000000
      3.51000000	      0.00000000	     -0.00000000	      0.00000000	      0.00000000	      0.00000000	      0.00000000	      0.00000000	      0.00000000	      0.00000000	      6.16741323	     66.42590332	   -503.46978760	   -279.24029983	  -1206.05924911	      0.00000000	      0.00000000	      0.00000000	   7754.98919215	      0.44354837	    -63.54329685	   -522.33081055	   -291.62994247	   -600.38471618	      0.00000000	      0.00000000	     -0.00000000	  -9237.37309538	      0.00000000	     -0.00000000	      0.00000000	      0.00000000	      0.00000000	      0.00000000	      0.00000000	      0.00000000	      0.00000000
      3.52000000	      0.00000000	     -0.00000000	      0.00000000	      0.00000000	      0.00000000	      0.00000000	      0.00000000	      0.00000000	      0.00000000	      5.52534628	     68.72524261	   -510.74334717	   -278.55313283	  -1207.02805921	      0.00000000	      0.00000000	      0.00000000	   7678.74410720	      0.65314960	    -63.49520880	   -530.01220703	   -291.60575442	   -599.84113978	      0.00000000	      0.00000000	     -0.00000000	  -9277.96414789	      0.00000000	     -0.00000000	      0.00000000	      0.00000000	      0.00000000	      0.00000000	      0.00000000	      0.00000000	      0.00000000
      3.53000000	      0.00000000	     -0.00000000	      0.00000000	      0.00000000	      0.00000000	      0.00000000	      0.00000000	      0.00000000	      0.00000000	      5.12143469	     71.25159454	   -516.82495117	   -277.92370312	  -1207.14346159	      0.00000000	      0.00000000	      0.00000000	   7662.83226980	      0.44354828	    -64.51508335	   -538.64367676	   -291.90551396	   -599.95112804	      0.00000000	      0.00000000	     -0.00000000	  -9381.79119459	      0.00000000	     -0.00000000	      0.00000000	      0.00000000	      0.00000000	      0.00000000	      0.00000000	      0.00000000	      0.00000000
      3.54000000	      0.00000000	     -0.00000000	      0.00000000	      0.00000000	      0.00000000	      0.00000000	      0.00000000	      0.00000000	      0.00000000	      5.34221554	     73.22843170	   -524.99169922	   -277.71591069	  -1207.07040290	      0.00000000	      0.00000000	      0.00000000	   7470.59940834	      0.51701387	    -65.84761052	   -548.35766602	   -291.59208961	   -600.21027084	      0.00000000	      0.00000000	     -0.00000000	  -9423.60201673	      0.00000000	     -0.00000000	      0.00000000	      0.00000000	      0.00000000	      0.00000000	      0.00000000	      0.00000000	      0.00000000
      3.55000000	      0.00000000	     -0.00000000	      0.00000000	      0.00000000	      0.00000000	      0.00000000	      0.00000000	      0.00000000	      0.00000000	      5.36263990	     75.44138336	   -535.42077637	   -278.04737850	  -1206.40484528	      0.00000000	      0.00000000	      0.00000000	   7656.00412766	      0.40290288	    -67.45207981	   -559.23931885	   -291.52753117	   -599.82053093	      0.00000000	      0.00000000	     -0.00000000	  -9308.44876839	      0.00000000	     -0.00000000	      0.00000000	      0.00000000	      0.00000000	      0.00000000	      0.00000000	      0.00000000	      0.00000000
